<?xml version="1.0" encoding="UTF-8"?> <svg xmlns="http://www.w3.org/2000/svg" id="Layer_2" data-name="Layer 2" viewBox="0 0 172.16 203.76"><defs><style> .cls-1 { fill: #cfb53b; stroke-width: 0px; } </style></defs><g id="gold"><g><path class="cls-1" d="M85.88,14.13h.02s.01,0,.01,0c.02-.02.02-.02-.06-.43-.87-4.52-.74-7.54.41-8.99,1.57,2.56,1.11,9.48,1.1,9.55v.07s.04-.05.04-.05c.03-.02,2.64-2.53,2.52-6.74-.11-2.99-.86-4.28-1.48-4.84-.34-.42-.52-.89-.66-1.26-.1-.27-.2-.51-.32-.66-.32-.45-.87-.75-1.4-.77-.37-.02-.69.11-.89.36l-.1.1c-.81.85-2.49,2.63-2.51,6.86.06,4.48,2.2,6.41,3.32,6.8Z"></path><path class="cls-1" d="M69.67,62.64c-.06-.32-.27-.58-.6-.75-.47-.25-1.1-.26-1.6-.03-.19.07-.38.23-.61.41-.31.25-.7.57-1.2.76-.81.18-2.11.92-3.7,3.46-2.2,3.58-1.19,7.06-1.18,7.1l.02.06.03-.06c.03-.06,3.09-6.3,5.73-7.72.27,1.83-1.12,4.51-4.14,7.99-.28.32-.28.32-.27.34v.02s.02,0,.02,0c.13.02.28.04.45.04,1.34,0,3.79-.86,5.82-4.28,2.1-3.67,1.53-6.05,1.25-7.2l-.03-.13Z"></path><path class="cls-1" d="M77.87,83.01c.3-.11.53-.36.65-.71.17-.5.08-1.13-.23-1.58-.1-.17-.29-.34-.51-.53-.3-.27-.67-.6-.94-1.06-.31-.77-1.25-1.94-4.01-3.09-3.89-1.6-7.16-.04-7.19-.02l-.06.03.06.02c.07.02,6.71,2.03,8.55,4.41-1.76.56-4.64-.38-8.56-2.79-.36-.22-.36-.22-.38-.21h-.01s0,.02,0,.02c-.02,1.19,1.03,3.86,5.2,5.51,1.59.59,2.91.79,3.98.79,1.6,0,2.67-.45,3.32-.72l.13-.05Z"></path><path class="cls-1" d="M25.51,73.02c-.24.79-.23,2.29,1.2,4.92,2.05,3.68,5.57,4.5,5.61,4.51h.07s-.04-.04-.04-.04c-.04-.06-3.98-5.77-3.93-8.78,1.72.66,3.39,3.19,4.94,7.52.14.4.14.4.17.4h.02s0,0,0,0c.76-.91,1.61-3.66-.63-7.54-2.18-3.63-4.53-4.29-5.67-4.62l-.13-.04c-.3-.1-.64-.05-.95.15-.45.29-.76.83-.81,1.38-.03.2.01.45.06.73.07.4.15.89.08,1.42Z"></path><path class="cls-1" d="M38.45,106.53l.05.08v-.1s-.04-2-1.09-4.23c-.61-1.31-1.45-2.44-2.48-3.37-1.29-1.16-2.9-2-4.77-2.5-1.45-.37-2.5-.23-3.04.4-.62.74-.52,2.09.29,3.92,1.57,3.51,5.4,5.22,6.09,5.41.88.36,2.7.48,3,.35.03-.01.04-.02.05-.04v-.02s0-.01,0-.01c-2.76-2.3-3.96-3.4-3.97-3.41,0-.01-.85-1.01-1.11-1.4-.32-.49-.52-1.1-.55-1.63,1.5.44,5.47,3.12,7.54,6.56Z"></path><path class="cls-1" d="M28.8,117.01c.14,0,.28.01.42.01,5.08,0,8.87-5.14,9.03-5.81v-.02s-.01,0-.01,0c-1.22-.65-2.63.65-3.16,1.14-.07.06-.12.11-.16.14-.15.12-.27.1-.38.08-.12-.02-.24-.04-.33.16-.15.31-.61,1.23-5.37,1.36.84-2,6.86-4.03,6.92-4.05h.04s-.04-.05-.04-.05c0,0-.97-.79-3.36-.62-2.7.26-4.58,1.43-5.69,2.36-1.28,1.08-2.03,2.31-2.11,2.96,0,.07-.02.14-.04.2-.07.36-.13.73.13,1.07.44.57,1.74.91,4.09,1.07Z"></path><path class="cls-1" d="M55.17,140.94c.79-.95,1.54-1.92,2.29-2.9.74-.98,1.46-1.98,2.17-2.97.34-.48.67-.97,1-1.45,1.31.36,2.46.52,3.47.52,5.11,0,6.59-4.06,7.45-6.44.18-.5.35-.97.52-1.32.15-.31.31-.62.46-.92,1.44-2.82,2.18-5.13-1.47-9.14-8.21-8.88-11.98-16.31-13.69-20.97-1.84-5-1.77-7.97-1.77-8.03.01-.36-.1-.69-.3-.96.53-.62,1.08-1.23,1.66-1.84.02.15.02.31.03.47,0,.14-.01.28-.01.42-.01.15-.03.29-.04.43,0,.14-.04.29-.06.44l-.02.11v.05s-.01.03-.01.03v.05c-.01.13-.02.27-.02.41.01.53.11,1.06.29,1.51.17.46.4.87.66,1.24.52.74,1.16,1.31,1.86,1.76.7.46,1.46.8,2.29,1.03.41.12.84.2,1.29.23h.34c.11.02.24,0,.35,0,.12,0,.24-.02.36-.05.12-.03.24-.04.36-.08.49-.13.99-.41,1.37-.8.38-.38.63-.88.72-1.33l.04-.17c0-.06.01-.11.02-.17l.03-.33c0-.11,0-.21,0-.31,0-.1,0-.21-.01-.31-.03-.2-.03-.41-.07-.59l-.1-.55c-.14-.72-.31-1.42-.53-2.14l-.08-.27-.09-.27c-.06-.18-.14-.36-.2-.54-.16-.36-.33-.72-.55-1.07-.22-.35-.49-.68-.79-.99-.3-.3-.65-.56-1.02-.77-.74-.43-1.57-.64-2.37-.68-.21-.02-.42-.02-.64-.02.14-.12.27-.24.41-.37.59-.53,1.2-1.05,1.83-1.6.31-.27.63-.55.95-.84l.48-.46c.08-.08.16-.16.24-.25.04-.05.08-.1.12-.16.02-.03.05-.06.07-.11.02-.05.06-.1.06-.22,0-.11-.09-.19-.19-.19-.08,0-.15.06-.18.13,0,0-.01.01-.03.02-.03.02-.07.04-.11.06-.08.04-.17.08-.26.12-.18.08-.37.15-.55.22l-1.13.44c-.75.3-1.5.62-2.23.97-1.46.71-2.87,1.53-4.21,2.48-.03.02-.06.04-.09.06-.03,0-.07.02-.09.04-.01.01-.02.03-.03.05-.01,0-.02.02-.04.03-.16-.02-.33-.06-.5-.1h-.03s-.08-.01-.11.01c-.07.04-.09.14-.05.21.06.09.12.18.18.26-2.34,1.8-4.36,4.01-5.92,6.53-1.2,1.95-2.11,4.07-2.75,6.26-.65.78-1.79,2.2-1.79,2.65,0,.25-.49.78-1.22,1.33-.26-1.26-.57-2.52-.95-3.77l-1.28-4.17c-.11-.35-.22-.71-.35-1.08-.07-.18-.13-.37-.21-.56-.07-.19-.2-.42-.32-.64-.06-.11-.13-.2-.2-.3l-.22-.28c-.16-.16-.31-.34-.48-.48-.33-.29-.68-.53-1.03-.74-.7-.41-1.41-.71-2.12-.97-.71-.26-1.41-.47-2.11-.68l-1.04-.29-.51-.15c-.16-.05-.32-.1-.48-.16-.32-.11-.62-.25-.92-.41-.15-.08-.29-.16-.43-.25-.07-.04-.14-.09-.21-.14l-.22-.15c-.65-.45-1.35-.74-2.06-.97-.72-.21-1.43-.36-2.17-.44-.07,0-.14.04-.16.11-.02.08.03.16.11.18h0c.68.18,1.36.43,1.99.73.63.3,1.23.66,1.71,1.11l.2.18c.07.06.14.13.22.19.15.12.3.24.46.35.32.22.65.42,1,.6.17.09.35.17.52.25l.51.22,1,.42c.66.28,1.31.56,1.93.87.62.31,1.21.64,1.71,1.02.5.37.94.8,1.12,1.22.04.11.09.19.13.34.04.14.09.3.13.46.08.32.16.67.23,1.01.29,1.38.49,2.82.72,4.25.24,1.43.57,2.85,1.03,4.25.04.11.07.22.11.32-.13.1-.22.22-.27.37-.28.81.61,2.26,1.55,3.79.5.81,1.01,1.64,1.36,2.4.38.79.32,1.12.21,1.26-.15.18-.53.18-1.09.02h-.03s0,0,0,0c-.11,0-.31-.05-.57-.11-.93-.22-2.66-.63-5.24-.11l-.09.02v.09c.02.25.27.88,2.42,1.42,5.97,1.48,8.02,5.47,8.15,5.74.03.19.32,1.68,2.51,4.13,2.04,2.34-.5,5.05-.62,5.17l-2.56,3.02h.04c-1.25,1.34-2.64,2.86-4,4.43-.53-.07-1.06-.09-1.59-.1-1.11-.01-2.24.08-3.35.35-1.11.26-2.2.68-3.2,1.29-1,.61-1.9,1.42-2.63,2.36-.17.24-.36.47-.52.73l-.45.77-.38.81-.09.2-.08.21-.15.42-.15.42c-.05.14-.08.28-.12.42l-.22.85-.15.86-.07.43-.04.43-.08.86c-.02.29-.02.57-.03.86,0,.29-.02.58-.01.86v.06c-.09.03-.18.07-.27.12l-.8.45c-.08.05-.13.08-.18.11-.06.04-.1.07-.15.11-.1.07-.2.14-.29.21-.19.14-.36.29-.54.43-.35.3-.68.6-1,.91-.64.63-1.22,1.29-1.75,1.99-.52.7-1,1.42-1.41,2.18-.07.12-.13.25-.2.37-.93.28-1.84.62-2.71,1.06-.84.43-1.64.92-2.35,1.54-.71.61-1.34,1.32-1.84,2.1l-.35.6-.29.63-.07.16c-.02.05-.04.11-.06.16l-.11.32-.11.32c-.04.11-.06.22-.08.33l-.04.17c-.14.1-.29.21-.43.32l-.57.47c-.19.15-.38.32-.56.49l-.55.51c-.6.58-1.18,1.12-1.87,1.51l-.25.16c-.09.05-.18.09-.26.13-.18.08-.35.18-.53.26l-.55.21c-.09.04-.19.07-.28.09l-.29.08c-.77.2-1.57.32-2.38.31-.81,0-1.64-.11-2.43-.31-.4-.1-.79-.22-1.17-.37-.09-.04-.18-.08-.28-.12l-.14-.06-.04-.02c-.11-.05-.22-.09-.35-.11-.26-.04-.57.01-.79.15-.23.13-.39.32-.5.53-.1.22-.15.48-.1.75.04.26.2.51.34.64l.07.06.26.24c1.39,1.3,2.92,2.47,4.64,3.37.7.36,1.42.67,2.17.92-.07.13-.11.29-.12.45,0,.27.08.49.16.64l.03.06.02.04.05.07.09.13.18.25c.12.16.24.32.35.48.95,1.25,1.95,2.44,3.02,3.6.53.58,1.08,1.13,1.66,1.67.29.27.59.53.9.78.31.25.64.49,1,.7.36.2.75.41,1.27.46.06,0,.14,0,.2,0h.1s.05-.02.08-.03l.32-.08c.21-.07.42-.14.61-.26.39-.22.74-.55.96-.94.04-.07.07-.14.1-.21.3.68.61,1.34.95,2,.49.97,1.01,1.91,1.6,2.83.58.91,1.22,1.8,1.96,2.59.37.39.77.77,1.22,1.07.43.3.9.54,1.42.64.08.13.17.25.27.37-.28-.56-.48-1.15-.68-1.73-.2-.59-.39-1.18-.55-1.77-.33-1.19-.6-2.39-.78-3.59-.17-1.2-.25-2.4-.14-3.55.07-.71.23-1.4.48-2.02.13.04.27.06.41.06.1,0,.2,0,.3,0,9.28,0,11.98-4.47,13.39-8.86.59-1.85.87-3.8.84-5.81,1.39-.31,2.77-.75,4.06-1.4.41-.19.8-.44,1.19-.67.19-.12.38-.26.56-.39l.28-.2.26-.22c.71-.57,1.34-1.24,1.87-1.98,1.06-1.46,1.68-3.17,1.92-4.88.13-.96.16-1.92.1-2.86.23-.2.45-.4.67-.61,1.83-1.69,3.5-3.53,5.08-5.43ZM60.71,83.89c.29.04.57.1.85.16.28.05.55.11.81.17.27.07.53.14.8.23.27.09.53.22.79.38.26.16.49.36.71.59.2.24.39.5.53.8.28.58.41,1.25.43,1.91,0,.16,0,.33,0,.49,0,.08-.02.16-.03.23l-.04.22c-.03.14-.09.28-.14.42l-.1.18s-.03.06-.05.09l-.06.07c-.14.2-.32.3-.48.35l-.06.02s-.04,0-.06,0c-.05,0-.07.02-.13.01-.05,0-.09,0-.13,0-.05,0-.1,0-.14,0-.39-.04-.89-.16-1.38-.39-.49-.23-.97-.55-1.4-.91-.22-.18-.42-.36-.61-.55-.18-.19-.37-.38-.52-.57-.32-.38-.52-.76-.62-1.07,0-.04-.02-.08-.03-.12h0s0-.05,0-.05v-.08s-.02-.15-.02-.15c-.02-.2-.03-.4-.07-.61-.04-.21-.08-.41-.12-.61-.06-.21-.12-.41-.18-.61-.09-.25-.2-.51-.33-.75.62.03,1.22.07,1.79.15ZM25.03,150.41c.65-.48,1.33-.89,2.03-1.26.35-.18.7-.35,1.05-.5.18-.07.35-.15.53-.21.09-.03.17-.06.26-.09.04-.01.09-.03.12-.04.04-.01.09-.03.1-.02.04,0,.08.02.12.02,0,.02,0,.04,0,.05l.12.81c.09.58.17,1.16.25,1.75-.15,0-.3,0-.45,0-.47,0-.93.03-1.4.06-.93.06-1.85.17-2.77.33-.47.08-.95.18-1.42.29.46-.43.95-.82,1.45-1.19ZM15.02,158.67l.15-.29s.05-.1.07-.14l.09-.14.35-.54.4-.5c.55-.64,1.2-1.19,1.9-1.65.7-.45,1.48-.79,2.27-1.06,1.59-.54,3.28-.77,4.98-.82.85-.03,1.7,0,2.54.06.42.03.84.07,1.26.12.21.03.42.05.62.08l.3.05s.02,0,.03,0c.07.59.13,1.17.18,1.75.03.42.06.84.09,1.26-.43-.15-.87-.28-1.31-.4-.99-.26-1.99-.42-3-.51-2.03-.17-4.09.03-6.04.6-.98.27-1.92.66-2.81,1.1-.45.21-.88.47-1.32.72-.21.13-.42.27-.63.4-.08.06-.17.11-.25.17l.14-.27ZM8.79,169.98h0s0,0,0,.01h0ZM23.7,171.65c-.08.07-.15.14-.21.22-.03.03-.06.07-.1.1l-.09.09-.03.04c-.4.63-.66,1.31-.82,1.99-.16.68-.22,1.36-.23,2.03,0,.67.06,1.32.16,1.97.09.64.24,1.27.4,1.89.33,1.24.78,2.42,1.29,3.57.26.57.53,1.14.83,1.69.15.28.31.55.47.82.08.14.17.27.25.41-.5-.13-.96-.39-1.36-.7-.43-.32-.8-.71-1.15-1.12-.69-.81-1.27-1.72-1.8-2.65-.53-.93-1-1.89-1.43-2.87-.43-.98-.83-1.98-1.18-2.98l-.55-1.58-.08,1.7c0,.13-.04.32-.09.47-.05.16-.11.31-.2.44-.17.28-.42.48-.7.62-.14.07-.3.12-.46.17l-.25.05s-.04,0-.06.01h-.04s-.05,0-.08,0c-.26-.03-.57-.19-.87-.39-.3-.19-.58-.42-.86-.67-.28-.24-.55-.51-.81-.77-.53-.54-1.03-1.11-1.52-1.69-.97-1.17-1.9-2.39-2.76-3.64l-.31-.47-.13-.21s.02,0,.03,0c.25-.08.58-.12.91-.15.14,0,.28.02.42.02.13,0,.26,0,.4,0,.07,0,.13,0,.21-.01h.11s.06-.02.06-.02h.08s-.12-1.59-.12-1.59c-.16,0-.31,0-.46.02-.07,0-.14,0-.21,0-.2-.02-.4-.03-.6-.07-.4-.06-.81-.17-1.2-.3-.8-.26-1.57-.64-2.31-1.07-.4-.24-.8-.5-1.18-.78.23.03.47.05.7.06,1.01.06,2.04-.03,3.05-.24l.38-.09c.13-.03.25-.06.37-.1l.74-.24c.24-.09.48-.2.72-.3.12-.05.24-.1.36-.16l.34-.19c.22-.13.46-.25.68-.39l.64-.44c.1-.08.22-.15.31-.23l.29-.24.57-.49.48-.39c.16-.13.32-.26.49-.39l.51-.38c.17-.12.35-.23.53-.35l.26-.17c.09-.06.18-.1.27-.16l.54-.31c.37-.19.74-.38,1.12-.54.76-.33,1.53-.6,2.33-.78,1.59-.37,3.23-.44,4.84-.23.8.11,1.6.28,2.37.53.39.12.77.26,1.13.41.18.08.36.16.54.24.08.04.17.08.25.13l.12.06.05.03s.04.02.03.02c.05.03.1.05.14.07-.03.29-.07.58-.11.86-.16.99-.45,1.92-.85,2.82-.4.9-.95,1.74-1.57,2.57-1.17,1.53-2.58,2.99-3.97,4.47ZM35.52,164.49c-1,3.13-2.52,6.18-8.57,6.72.05-.05.11-.1.16-.15.8-.77,1.59-1.57,2.33-2.46.74-.88,1.42-1.86,1.96-2.94.54-1.08.91-2.24,1.13-3.41.16-.82.24-1.65.28-2.46.11-.34.11-.69.03-1.03,0-1.14-.05-2.26-.15-3.37-.1-1.11-.24-2.22-.39-3.31-.16-1.09-.34-2.19-.53-3.26l-.15-.81c-.04-.26-.07-.52-.11-.78l-.11-.78c-.04-.26-.05-.52-.07-.78l-.07-.78c-.02-.26-.02-.52-.03-.78,0-.26-.02-.52-.01-.78l.03-.77.02-.39.04-.38.08-.76.14-.75c.03-.12.04-.25.07-.37l.1-.36.1-.36.05-.18.07-.17.26-.7.33-.67c.05-.12.12-.22.18-.32l.19-.32c.53-.84,1.22-1.58,2.03-2.19.81-.61,1.73-1.1,2.71-1.47,1.38-.5,2.86-.79,4.36-.9-2.46,2.84-4.81,5.79-6.1,8.04l-.05.09c-1.08,2.22-.66,7.63.04,15.03.1,1.07.2,2.09.28,3.02.18,2.12-.04,4.15-.64,6.05ZM48.6,149.69c-.46,1.56-1.25,2.99-2.33,4.09-.54.55-1.14,1.03-1.8,1.41l-.24.15-.26.13c-.17.08-.34.18-.51.25-.36.14-.7.3-1.07.41-1.09.36-2.23.56-3.39.66-.05-.53-.1-1.08-.15-1.64-.08-.84-.17-1.78-.26-2.77.64-.02,1.28-.11,1.91-.25,1.23-.28,2.42-.75,3.54-1.33,1.83-.96,3.5-2.18,5.04-3.51-.08.82-.24,1.63-.47,2.4ZM48.44,144.74c-1.59,1.76-3.28,3.43-5.18,4.82-.95.69-1.95,1.31-3.03,1.79-.54.24-1.11.44-1.69.6-.35-4.11-.65-8.87-.05-10.21,3.3-5.69,14.29-16.71,14.4-16.82.58-.58.58-1.52,0-2.09-.05-.05-.1-.09-.15-.13,1.26-5.19-.59-8.3-2.92-12.21-.43-.72-.87-1.46-1.31-2.25-.84-1.51-1.36-3.18-1.66-4.82l.23-.72c.47-1.52.95-2.97,1.46-4.37,1.02-2.8,2.2-5.35,3.65-7.7.2-.32.41-.64.62-.96.64,4.56,3.51,15.08,16.06,28.67,2.55,2.8,2.07,3.74,1.02,5.79-.16.32-.33.65-.5,1.01-.23.48-.42,1.01-.62,1.58-.96,2.66-1.88,5.19-6.35,4.31v-.02s.09-.13.09-.13c.1-.17.2-.34.27-.5.32-.64.57-1.31.73-1.99.34-1.36.41-2.72.31-4.03-.09-1.31-.33-2.58-.65-3.81-.66-2.46-1.65-4.76-2.81-6.94-.58-1.09-1.21-2.15-1.88-3.18-.67-1.03-1.39-2.03-2.17-2.98,1,2.23,1.93,4.48,2.73,6.74.79,2.27,1.47,4.56,1.87,6.85.2,1.15.31,2.29.32,3.41,0,1.12-.12,2.21-.42,3.2-.15.49-.34.97-.58,1.4-.06.12-.12.2-.17.3l-.04.07-.06.08-.12.17-.52.73-2.09,2.97c-.69.99-1.39,1.97-2.1,2.94-.7.98-1.42,1.94-2.14,2.9-1.44,1.91-2.94,3.77-4.53,5.54Z"></path><path class="cls-1" d="M118.4,79.74s.08,0,.12,0c.82-.06,1.42-.78,1.36-1.59-1.3-16.46-8.74-27.06-14.75-33.06-6.53-6.51-12.71-9.1-12.97-9.21-.76-.31-1.62.05-1.93.8-.31.76.05,1.62.8,1.93.06.02,5.98,2.52,12.1,8.66,8.18,8.2,12.82,18.66,13.8,31.1.06.78.71,1.36,1.48,1.36Z"></path><path class="cls-1" d="M111.33,73.82l.03.06.02-.06s1.02-3.51-1.18-7.1c-1.59-2.54-2.89-3.28-3.7-3.46-.5-.19-.89-.51-1.2-.76-.23-.18-.42-.34-.61-.41-.5-.23-1.13-.22-1.6.03-.33.17-.54.44-.59.75l-.03.14c-.27,1.15-.84,3.53,1.25,7.2,2.03,3.41,4.48,4.28,5.82,4.28.17,0,.32-.01.45-.04h.02s0-.02,0-.02c0-.02,0-.03-.27-.34-3.01-3.48-4.41-6.17-4.14-7.99,2.64,1.43,5.7,7.66,5.73,7.72Z"></path><path class="cls-1" d="M106.92,77.73v-.02s-.01,0-.01,0c-.02-.01-.02-.01-.38.21-3.92,2.41-6.8,3.35-8.56,2.79,1.84-2.38,8.48-4.39,8.55-4.41l.06-.02-.06-.03s-3.3-1.57-7.19.02c-2.76,1.16-3.7,2.32-4.01,3.09-.27.47-.65.8-.95,1.07-.22.19-.41.36-.51.53-.31.46-.4,1.08-.23,1.58.12.35.35.6.65.71l.13.05c.65.27,1.72.72,3.32.72,1.08,0,2.39-.2,3.98-.79,4.17-1.64,5.22-4.32,5.2-5.5Z"></path><path class="cls-1" d="M139.23,74.24c-2.23,3.88-1.39,6.63-.63,7.54h.01s.02,0,.02,0c.03,0,.03,0,.17-.4,1.56-4.33,3.22-6.86,4.94-7.52.05,3-3.89,8.72-3.93,8.78l-.04.06h.07s3.56-.84,5.61-4.52c1.44-2.63,1.45-4.12,1.2-4.91-.08-.53,0-1.03.07-1.42.05-.29.09-.54.06-.73-.05-.55-.36-1.09-.81-1.38-.31-.2-.65-.25-.95-.15l-.13.04c-1.13.32-3.49.99-5.67,4.62Z"></path><path class="cls-1" d="M139.6,103.25s-1.21,1.11-3.97,3.41h-.01s0,.03,0,.03c0,.02.02.03.05.04.3.13,2.12.02,3-.35.69-.19,4.52-1.9,6.09-5.41.82-1.82.92-3.18.29-3.92-.53-.63-1.58-.77-3.04-.4-1.88.5-3.48,1.34-4.77,2.5-1.03.93-1.87,2.06-2.48,3.37-1.05,2.22-1.09,4.21-1.09,4.23v.1s.05-.08.05-.08c2.07-3.43,6.03-6.11,7.54-6.56-.03.54-.23,1.14-.55,1.63-.25.4-1.1,1.39-1.1,1.4Z"></path><path class="cls-1" d="M145.45,111.93c-1.1-.93-2.98-2.1-5.69-2.36-2.4-.17-3.35.61-3.36.62l-.04.03h.04c.06.04,6.08,2.07,6.92,4.07-4.76-.12-5.22-1.05-5.37-1.35-.09-.2-.21-.18-.33-.16-.11.02-.23.04-.38-.08-.04-.03-.09-.08-.16-.14-.53-.49-1.94-1.79-3.16-1.14h-.02s0,.03,0,.03c.16.68,3.95,5.81,9.03,5.81.14,0,.28,0,.42-.01,2.35-.16,3.65-.5,4.09-1.07.27-.34.2-.71.13-1.07-.01-.07-.03-.14-.04-.2-.08-.65-.83-1.88-2.11-2.96Z"></path><path class="cls-1" d="M172.04,163.79c-.11-.22-.27-.4-.5-.53-.22-.13-.53-.19-.79-.15-.14.02-.25.06-.35.11l-.04.02-.14.06c-.09.04-.18.08-.28.12-.38.14-.77.27-1.17.37-.8.2-1.62.3-2.43.31-.81,0-1.62-.11-2.38-.31l-.29-.08c-.1-.02-.19-.05-.28-.09l-.55-.21c-.18-.08-.35-.18-.53-.26-.09-.04-.18-.09-.26-.13l-.25-.16c-.68-.39-1.27-.93-1.87-1.51l-.55-.51c-.18-.17-.37-.34-.56-.49l-.57-.47c-.14-.11-.28-.21-.43-.32l-.04-.17c-.03-.11-.05-.22-.08-.33l-.11-.32-.11-.32c-.02-.05-.04-.11-.06-.16l-.07-.16-.29-.63-.35-.6c-.5-.78-1.13-1.49-1.84-2.1-.71-.62-1.52-1.11-2.35-1.54-.87-.44-1.78-.79-2.71-1.06-.06-.12-.13-.25-.2-.37-.4-.76-.88-1.48-1.41-2.18-.52-.7-1.11-1.36-1.75-1.99-.32-.32-.65-.62-1-.91-.18-.14-.35-.29-.54-.43-.09-.07-.19-.14-.29-.21-.05-.03-.1-.07-.15-.11-.06-.04-.1-.07-.18-.11l-.81-.45c-.09-.05-.18-.09-.27-.12v-.06c0-.29,0-.57-.01-.86,0-.29,0-.57-.03-.86l-.08-.86-.04-.43-.07-.43-.15-.86-.22-.85c-.04-.14-.07-.28-.12-.42l-.15-.42-.15-.42-.08-.21-.09-.2-.38-.81-.45-.77c-.15-.26-.34-.49-.52-.73-.73-.94-1.63-1.75-2.63-2.36-1-.61-2.09-1.03-3.2-1.29-1.11-.26-2.24-.36-3.35-.35-.53,0-1.07.03-1.59.1-1.37-1.57-2.75-3.09-4-4.43h.04s-2.56-3.03-2.56-3.03c-.03-.03-2.65-2.82-.61-5.17,2.2-2.44,2.49-3.94,2.52-4.13.13-.26,2.18-4.25,8.15-5.74,2.15-.54,2.4-1.17,2.41-1.42v-.09s-.08-.02-.08-.02c-2.59-.52-4.32-.11-5.24.11-.26.06-.46.11-.57.11h-.03c-.56.17-.94.16-1.09-.01-.12-.14-.17-.47.21-1.26.35-.75.86-1.59,1.36-2.4.95-1.53,1.84-2.98,1.55-3.79-.05-.15-.15-.27-.27-.37.04-.11.07-.22.11-.32.46-1.4.79-2.82,1.03-4.25.23-1.43.43-2.87.72-4.25.07-.34.15-.68.23-1.01.04-.16.08-.32.13-.46.04-.15.09-.23.13-.34.18-.42.61-.84,1.12-1.22.51-.38,1.1-.72,1.71-1.02.62-.31,1.27-.59,1.93-.87l1-.42.51-.22c.18-.08.35-.16.52-.25.34-.18.68-.38,1-.6.16-.11.31-.23.46-.35.07-.06.15-.13.22-.19l.2-.18c.48-.45,1.08-.81,1.71-1.11.63-.3,1.31-.55,1.99-.73h0c.07-.02.12-.09.11-.16,0-.08-.08-.14-.16-.13-.74.08-1.45.23-2.17.44-.71.23-1.41.52-2.06.97l-.22.15c-.07.05-.14.09-.21.14-.14.09-.29.17-.43.25-.3.16-.6.29-.92.41-.16.06-.32.11-.48.16l-.51.15-1.04.29c-.7.2-1.4.42-2.11.68-.61.22-1.21.48-1.82.8.29-8.39-1.09-16.52-4.12-24.19-2.45-6.18-5.96-12.07-10.44-17.49-5.27-6.37-10.57-10.55-13.46-12.6,2.61.14,5.3.45,8.07.93,1.58.28,3.19.69,4.79,1.24,4.35,1.49,15.26,5.63,22.62,11.9.66.56,1.62.52,2.23-.09.61-.61.65-1.57.09-2.23-9-10.61-21.41-15.7-30.23-18.1-8.81-2.39-18.15-3.19-25.17-2.22-.71-1.94-2.37-6.37-2.77-7.08-.52-.92-.84-.37-.84-.37,0,0-.46,6.14-1.66,8.61h-.23s.02.04.04.05c-2.82.81-6.96,2.23-11.61,4.52-.15-.12-.32-.2-.51-.26-3.22-.92-10.23.41-18.75,3.56-5.13,1.9-10.26,4.26-14.94,6.85,8.05-6.79,16.41-10.09,22.68-11.7,9.07-2.33,15.85-1.72,15.97-1.71.81.08,1.54-.51,1.62-1.33.08-.81-.51-1.54-1.33-1.62-.29-.03-7.29-.69-16.88,1.75-8.83,2.25-21.59,7.67-32.23,20.76-.53.65-.49,1.59.09,2.2.32.34.76.51,1.2.51.35,0,.69-.11.99-.33,6.42-4.78,15.11-9.38,23.86-12.61,5.89-2.18,10.54-3.27,13.6-3.57-3.37,1.99-6.87,4.45-10.23,7.45-5.85,5.23-10.43,11.39-13.63,18.29-3.78,8.17-5.65,17.46-5.54,27.61,0,.81.67,1.47,1.48,1.47,0,0,.01,0,.02,0,.82,0,1.47-.68,1.47-1.5-.18-18.02,5.94-32.71,18.19-43.67,11.33-10.14,24.25-13.68,27.94-14.52,8.2-1.87,25.91-.72,40.9,7.46-2.87-1.25-5.48-2.21-7.47-2.89-1.74-.6-3.51-1.05-5.24-1.36-12.01-2.09-22.78-1.03-32.01,3.17-7.4,3.37-13.82,8.73-19.07,15.94-8.87,12.2-11.3,25.3-11.4,25.85-.14.81.39,1.57,1.2,1.72.8.14,1.57-.39,1.72-1.2.02-.13,2.4-12.98,10.87-24.63,8.9-12.23,20.87-18.57,35.67-18.93.04.46.29.89.72,1.15.08.05,7.66,4.63,14.96,13.49,6.69,8.12,14.52,21.63,13.81,39.85-.03.67.39,1.25.99,1.46l-.05.07c-.07.1-.15.19-.2.3-.12.21-.25.45-.32.64-.08.2-.15.38-.21.56-.13.37-.24.72-.35,1.08l-1.28,4.17c-.36,1.19-.66,2.38-.91,3.58,0-.45,0-.91-.03-1.37-.03-.44-.06-.88-.11-1.33-.05-.44-.12-.88-.19-1.33-.14-.89-.37-1.76-.63-2.63-.26-.87-.6-1.72-.96-2.56-.38-.83-.82-1.64-1.29-2.43-.49-.78-1.03-1.53-1.6-2.25-.59-.7-1.21-1.39-1.88-2.01-.67-.62-1.36-1.22-2.11-1.74-.37-.26-.74-.52-1.12-.76-.39-.23-.77-.46-1.17-.67-1.58-.84-3.24-1.48-4.94-1.88-.85-.19-1.71-.34-2.57-.42-.43-.04-.86-.07-1.28-.09h-.63s-.3-.03-.3-.03h-.13s-.03,0-.04,0c0,.01,0,.02,0,.09,0-.11-.08-.19-.19-.19s-.19.08-.19.19c0,.12.05.16.08.2.03.03.06.06.08.08.05.04.1.07.15.1.1.05.19.1.28.15.19.09.37.17.56.25l1.11.48c.73.33,1.45.67,2.16,1.04,1.24.64,2.44,1.37,3.58,2.17-.05.01-.09.03-.14.04-.06,0-.13,0-.19,0-.08,0-.15-.01-.23-.02l-.23-.03c-.15-.01-.3-.05-.45-.07-.15-.04-.29-.05-.44-.09-.07-.02-.15-.04-.22-.05l-.25-.05c-.75-.16-1.53-.23-2.33-.17-.8.04-1.63.25-2.37.68-.37.21-.72.47-1.02.77-.3.31-.57.64-.79.99-.22.35-.39.72-.55,1.07-.07.18-.15.36-.2.54l-.09.27-.08.27c-.22.71-.39,1.42-.53,2.14l-.1.55c-.04.18-.04.39-.07.59-.02.1,0,.2-.01.31,0,.1,0,.21,0,.31l.03.33c0,.06.01.11.02.17l.04.17c.09.45.34.94.72,1.33.38.39.88.67,1.37.8.12.04.24.06.36.08.12.03.24.04.36.05.12,0,.24.02.35.02h.34c.45-.05.89-.12,1.29-.24.82-.23,1.58-.57,2.29-1.03.7-.45,1.34-1.03,1.86-1.76.26-.36.49-.78.66-1.24.18-.45.28-.97.29-1.51,0-.14,0-.27-.02-.41v-.05s0-.03,0-.03v-.05s-.02-.11-.02-.11c-.02-.14-.05-.29-.06-.44,0-.14-.03-.29-.04-.43,0-.14,0-.28-.01-.42,0-.56.09-1.08.32-1.61,0,0,0-.01,0-.02.47-.18.92-.43,1.3-.76,1.02.81,1.99,1.68,2.88,2.63,1.08,1.16,2.05,2.43,2.87,3.78.84,1.35,1.54,2.78,2.1,4.26.35.93.65,1.88.9,2.84.26,2.65.39,7.98-1.92,12.11-.45.79-.89,1.53-1.31,2.25-2.33,3.91-4.19,7.02-2.92,12.21-.05.04-.1.08-.15.13-.58.58-.58,1.52,0,2.09.11.11,11.1,11.13,14.4,16.82.6,1.35.31,6.11-.05,10.21-.58-.15-1.14-.36-1.69-.6-1.08-.48-2.09-1.09-3.03-1.79-1.9-1.39-3.59-3.06-5.18-4.82-1.59-1.77-3.08-3.63-4.53-5.54-.72-.96-1.44-1.92-2.14-2.9-.71-.97-1.41-1.95-2.1-2.94l-2.09-2.97-.52-.73-.12-.17-.06-.08-.04-.07c-.06-.1-.11-.18-.17-.3-.24-.44-.42-.91-.58-1.4-.3-.99-.41-2.08-.42-3.2,0-1.12.12-2.26.32-3.41.39-2.29,1.07-4.59,1.87-6.85.8-2.27,1.72-4.51,2.73-6.74-.78.95-1.5,1.95-2.17,2.98-.67,1.03-1.3,2.09-1.88,3.18-1.16,2.18-2.15,4.48-2.81,6.94-.32,1.23-.57,2.5-.65,3.81-.09,1.31-.02,2.67.31,4.03.17.68.41,1.35.73,1.99.07.16.18.33.27.5l.07.13v.02c-4.46.87-5.37-1.65-6.34-4.31-.2-.56-.4-1.09-.62-1.58-.17-.36-.34-.69-.5-1.01-1.05-2.05-1.53-2.99,1.01-5.78,16.63-18,16.27-30.61,16.24-31.14-.04-.81-.73-1.45-1.54-1.41-.81.03-1.45.72-1.42,1.54,0,.03.08,3.01-1.77,8.03-1.71,4.66-5.48,12.08-13.7,20.98-3.65,4.01-2.91,6.31-1.46,9.13.15.3.31.61.46.92.17.36.34.83.52,1.32.86,2.38,2.33,6.44,7.45,6.44,1.01,0,2.15-.16,3.47-.52.33.48.67.97,1,1.45.71,1,1.43,1.99,2.17,2.97.75.98,1.5,1.95,2.29,2.9,1.58,1.9,3.24,3.74,5.08,5.43.22.2.45.41.67.61-.06.95-.03,1.91.1,2.86.24,1.7.86,3.41,1.92,4.88.53.73,1.15,1.41,1.87,1.98l.26.22.28.2c.19.13.37.27.56.39.39.23.78.48,1.19.67,1.29.65,2.67,1.1,4.06,1.4-.03,2.02.25,3.97.84,5.81,1.41,4.39,4.11,8.86,13.39,8.86.1,0,.2,0,.3,0,.14,0,.28-.02.41-.06.25.61.41,1.3.48,2.02.11,1.15.04,2.35-.14,3.55-.17,1.2-.45,2.4-.78,3.59-.16.59-.36,1.18-.55,1.77-.2.59-.4,1.18-.68,1.73.1-.12.19-.24.27-.37.51-.1.99-.34,1.42-.64.45-.31.85-.68,1.22-1.07.75-.79,1.38-1.68,1.96-2.59.58-.92,1.11-1.86,1.6-2.83.33-.66.65-1.32.95-2,.03.07.06.14.1.21.21.4.56.73.96.94.2.11.4.19.61.26l.32.08s.05.01.08.02h.1c.07.01.14.02.2.01.52-.05.91-.25,1.27-.46.36-.21.69-.45,1-.7.32-.25.61-.51.9-.78.58-.54,1.13-1.1,1.66-1.67,1.06-1.15,2.06-2.35,3.02-3.6.12-.16.24-.32.35-.48l.18-.25.09-.13.05-.07.02-.04.03-.06c.08-.15.17-.37.16-.64,0-.16-.05-.32-.12-.45.75-.25,1.48-.56,2.17-.92,1.71-.91,3.25-2.08,4.64-3.37l.26-.24.07-.06c.13-.13.3-.38.34-.64.05-.27,0-.54-.1-.75ZM112.91,84.72c-.06.2-.13.4-.18.61-.04.2-.08.4-.12.61-.04.21-.05.4-.07.61v.15s-.02.08-.02.08v.04s0,.01,0,.01c-.01.04-.02.08-.03.12-.1.31-.3.68-.62,1.07-.15.19-.34.38-.52.57-.19.19-.39.37-.61.55-.43.35-.9.68-1.4.91-.49.24-.99.35-1.38.39-.05,0-.09,0-.14,0-.04,0-.08,0-.13,0-.05,0-.08-.01-.13-.01-.02,0-.05,0-.06,0l-.06-.02c-.16-.05-.34-.14-.48-.35l-.06-.07s-.03-.06-.05-.09l-.1-.18c-.05-.13-.1-.27-.14-.42l-.04-.22c-.01-.07-.03-.15-.03-.23,0-.16-.02-.33,0-.49.02-.66.15-1.33.43-1.91.14-.29.32-.56.53-.8.21-.23.45-.43.71-.59.26-.16.52-.28.79-.38.27-.09.54-.16.8-.23.27-.07.54-.12.81-.17.28-.05.56-.11.85-.16.57-.08,1.17-.13,1.79-.15-.13.24-.24.49-.33.75ZM133.33,155.38c-.05.56-.11,1.11-.15,1.64-1.16-.09-2.3-.3-3.39-.66-.37-.11-.71-.26-1.07-.41-.18-.07-.34-.17-.51-.25l-.26-.13-.24-.15c-.66-.38-1.26-.86-1.8-1.41-1.08-1.1-1.88-2.53-2.33-4.09-.23-.78-.38-1.58-.47-2.4,1.55,1.33,3.21,2.55,5.04,3.51,1.12.58,2.31,1.06,3.54,1.33.63.14,1.27.23,1.91.25-.09.99-.18,1.93-.26,2.77ZM142.8,149.42l.12-.81s0-.04,0-.05c.04,0,.08-.01.12-.02.01,0,.06.01.1.02.04,0,.08.02.12.04.08.03.17.06.26.09.18.06.35.14.53.21.35.15.71.32,1.05.5.7.37,1.38.78,2.03,1.26.5.37.99.76,1.45,1.19-.47-.11-.94-.21-1.42-.29-.92-.16-1.84-.26-2.77-.33-.46-.03-.93-.05-1.4-.06-.15,0-.3,0-.45,0,.08-.58.17-1.16.25-1.75ZM142,155.84c.05-.58.11-1.17.18-1.75.01,0,.02,0,.03,0l.3-.05c.21-.03.41-.06.62-.08.42-.05.84-.09,1.26-.12.84-.06,1.69-.08,2.54-.06,1.69.05,3.39.28,4.98.82.79.27,1.57.61,2.27,1.06.71.45,1.35,1,1.9,1.65l.4.5.35.54.09.14s.05.1.07.14l.15.29.14.27c-.08-.06-.17-.11-.25-.17-.21-.13-.42-.27-.63-.4-.43-.25-.86-.5-1.32-.72-.9-.44-1.84-.83-2.81-1.1-1.95-.56-4.01-.76-6.04-.6-1.01.08-2.02.25-3,.51-.44.11-.88.25-1.31.4.02-.42.05-.84.09-1.26ZM136.65,164.72c-.61-1.89-.82-3.93-.64-6.05.08-.93.18-1.95.28-3.02.7-7.4,1.11-12.81.04-15.03l-.05-.09c-1.3-2.25-3.65-5.21-6.1-8.04,1.51.1,2.99.39,4.37.9.98.36,1.91.86,2.71,1.47.8.62,1.49,1.36,2.03,2.19l.19.32c.06.11.13.21.18.32l.33.67.26.7.07.17.05.18.1.36.1.36c.03.12.05.25.07.37l.14.75.08.76.04.38.02.39.03.77c0,.26-.01.52-.01.78,0,.26,0,.52-.03.78l-.07.78c-.03.26-.03.52-.07.78l-.11.78c-.04.26-.07.51-.11.78l-.15.81c-.19,1.07-.36,2.17-.53,3.26-.15,1.1-.29,2.2-.39,3.31-.1,1.11-.15,2.23-.15,3.37-.08.33-.08.69.03,1.03.04.82.13,1.64.28,2.46.21,1.17.59,2.33,1.13,3.41.53,1.08,1.22,2.06,1.96,2.94.74.89,1.52,1.69,2.33,2.46.05.05.11.1.16.15-6.04-.54-7.56-3.59-8.57-6.72ZM163.36,170.23s0-.01,0-.02h0s0,.02,0,.02ZM165.94,167.23c-.74.43-1.51.81-2.31,1.07-.4.12-.8.24-1.2.3-.2.04-.4.06-.6.07-.07,0-.14,0-.21,0-.15,0-.3-.01-.46-.02l-.12,1.58h.08s.06.02.06.02h.11c.07.02.14.02.21.03.14.01.26,0,.4,0,.14,0,.28-.01.42-.02.33.03.66.07.91.15,0,0,.02,0,.03,0l-.13.21-.31.47c-.86,1.25-1.78,2.48-2.76,3.64-.49.58-.99,1.15-1.52,1.69-.26.27-.53.53-.81.77-.28.25-.57.48-.86.67-.29.19-.61.35-.87.39-.03,0-.06,0-.08,0h-.04s-.04,0-.06,0l-.25-.05c-.16-.05-.32-.09-.46-.17-.29-.14-.54-.35-.7-.62-.09-.13-.15-.29-.2-.44-.05-.15-.08-.34-.09-.47l-.08-1.7-.55,1.58c-.35,1-.75,2-1.18,2.98-.43.98-.91,1.94-1.43,2.87-.53.93-1.11,1.83-1.8,2.65-.35.41-.72.79-1.15,1.12-.41.31-.86.57-1.36.7.09-.13.17-.27.25-.41.16-.27.32-.54.47-.82.3-.55.57-1.12.83-1.69.52-1.15.96-2.34,1.29-3.57.17-.62.31-1.25.4-1.89.09-.64.16-1.3.16-1.97,0-.67-.07-1.35-.23-2.03-.16-.68-.43-1.36-.82-1.99l-.03-.04-.09-.09s-.06-.06-.09-.09c-.07-.09-.14-.17-.23-.24-1.39-1.47-2.79-2.92-3.96-4.45-.61-.83-1.17-1.67-1.57-2.57-.4-.9-.69-1.83-.85-2.82-.05-.28-.08-.57-.11-.86.05-.02.1-.05.14-.07-.01,0,.01,0,.03-.02l.05-.03.12-.06c.08-.04.17-.08.25-.13.17-.08.35-.16.54-.24.37-.15.75-.29,1.13-.41.77-.24,1.57-.42,2.37-.53,1.61-.22,3.25-.14,4.84.23.79.18,1.57.45,2.33.78.38.16.75.35,1.12.54l.54.31c.09.05.18.1.27.16l.26.17c.17.12.35.23.53.35l.51.38c.17.12.33.25.49.39l.48.39.57.49.29.24c.09.08.21.15.31.23l.64.44c.22.14.45.26.68.39l.34.19c.12.06.24.11.36.16.24.1.47.21.72.3l.74.24c.12.04.25.07.37.1l.38.09c1.01.22,2.04.3,3.05.24.24-.01.47-.04.7-.06-.39.28-.78.54-1.18.78Z"></path><path class="cls-1" d="M79.75,21.18c.76.2,1.43.25,1.92.25s.75-.04.75-.05h.05s-.04-.05-.04-.05c-.01-.01-1.26-1.16-3.22-3.02-1.74-1.46-1.88-3.82-1.89-4.12.94.17,2.57,1.13,6.76,6.93l.04.06v-.07c.06-.82-.6-5.51-3.22-8.01-2.65-2.26-5.5-3.53-6.77-3.04-.33.13-.59.41-.74.82-.27.74-.41,2.57,1.71,6.57,1.35,2.43,3.27,3.37,4.63,3.73Z"></path><path class="cls-1" d="M88.03,21.12v.07s.05-.06.05-.06c4.19-5.79,5.82-6.76,6.76-6.93-.01.3-.15,2.66-1.89,4.12-1.96,1.85-3.21,3-3.22,3.02l-.04.04h.05s.29.05.75.05,1.16-.05,1.92-.25c1.37-.36,3.28-1.3,4.63-3.73,2.12-4,1.99-5.83,1.71-6.57-.15-.4-.4-.69-.74-.82-1.27-.5-4.11.78-6.77,3.04-2.62,2.5-3.28,7.19-3.22,8.01Z"></path><g><path class="cls-1" d="M111.39,177.06c-.07-.35-.15-.71-.26-1.05-.41-1.39-1.04-2.69-1.65-3.98-.31-.65-.61-1.3-.89-1.96-.27-.66-.52-1.34-.67-2.04h-.02s0,.01,0,.02l-.07.13h0c-.17.1-.3.24-.44.38-.14.13-.26.29-.39.43-.13.14-.24.3-.37.45-.12.15-.23.31-.34.47-.45.63-.82,1.32-1.18,2.01-.69,1.4-1.19,2.88-1.58,4.39-.09.38-.19.76-.27,1.14l-.21,1.15-.1.57-.07.58-.14,1.16c-.07.77-.11,1.55-.17,2.33l-.03,2.33c-.15.92-.34,1.84-.62,2.73-.28.89-.62,1.76-1.03,2.6-.41.84-.88,1.65-1.41,2.42-.53.77-1.12,1.5-1.75,2.19-1.26,1.38-2.71,2.59-4.29,3.58-.79.49-1.62.93-2.49,1.27-.43.17-.88.32-1.33.42-.45.09-.92.16-1.35.05l-.67-.17.6.33c1.74.97,3.77,1.46,5.77,1.31,2-.13,3.94-.87,5.57-2.02,1.63-1.16,2.97-2.7,3.95-4.44.98-1.74,1.6-3.67,1.92-5.64h0s0-.01,0-.01l.37-6.08c.07-1.01.14-2.02.3-3.02.08-.5.19-.99.35-1.46.15-.43.36-.85.66-1.19.43.53.92,1.02,1.5,1.4.31.2.64.36,1.01.44.18.04.37.06.56.04.19-.02.38-.08.54-.18.33-.2.53-.55.64-.9.11-.35.15-.72.15-1.08,0-.18,0-.36-.02-.55-.02-.18-.06-.36-.09-.54Z"></path><path class="cls-1" d="M112.5,161.05c-.03-.06-.07-.12-.11-.16-.07-.06-.15-.1-.23-.13-.28-.11-.56-.21-.84-.33-.55-.24-1.08-.52-1.58-.84-.5-.32-.98-.69-1.38-1.12-.11-.11-.21-.23-.34-.32-.12-.1-.27-.18-.44-.21-.17-.03-.34.04-.45.15-.11.11-.19.25-.24.4h.02c.06-.12.15-.25.27-.34.11-.09.25-.12.38-.09.13.03.25.11.36.21.11.09.2.21.3.32.4.47.87.88,1.38,1.22.51.34,1.06.61,1.63.84.28.11.56.22.84.3-.3.05-.66.26-.94.43l-.03-.04c-.1-.13-.19-.17-.29-.23-.1-.06-.19-.11-.29-.15-.19-.1-.39-.18-.59-.27-.39-.18-.78-.36-1.16-.55-.38-.2-.75-.41-1.1-.66-.33-.26-.67-.56-.81-.97,0,0,0,0,0-.01,0,0-.02,0-.02,0,0,0,0,0,0,.01,0,0,0,.01,0,.02v.04s-.04.09-.04.09l-.04.18-.08.35-.17.71c-.12.47-.25.94-.4,1.39-.15.46-.32.91-.55,1.34-.11.22-.25.4-.39.61-.13.21-.26.43-.29.69-.01.13.02.28.1.38.08.11.19.18.28.25.04.04.08.07.1.11.01.02.04.06.07.09.02.03.05.04.07.07.1.08.19.15.29.23.4.28.8.55,1.18.85.38.29.76.6,1.09.94.33.34.63.73.76,1.17l.07.25s-.09,0-.13,0v.02s.09.01.14.02l.05.17.02-.16c.1,0,.2,0,.3,0,.17-.02.35-.08.48-.2.14-.12.24-.28.29-.46.05-.16.08-.32.12-.49.16-.65.37-1.28.57-1.91.2-.63.43-1.27.72-1.87.29-.6.61-1.19,1-1.73h0s0-.01,0-.01c.07-.14.14-.3.11-.49,0-.01,0-.02,0-.04l.02-.02s-.02-.02-.04-.04ZM112.28,161.54c-.18.29-.34.59-.49.89-.15.3-.3.6-.44.9-.29.61-.58,1.21-.83,1.84-.25.62-.43,1.28-.57,1.94l-.09.49c-.03.15-.1.29-.21.4-.18.17-.43.24-.69.26l.03-.26c.06-.58.14-1.15.25-1.72.11-.57.26-1.13.43-1.68.17-.55.37-1.09.61-1.62.18-.4.38-.78.6-1.15.05-.02.13-.07.26-.15.31-.2,1.04-.66,1.22-.43h0c0,.1-.03.21-.08.32h0Z"></path><path class="cls-1" d="M98.88,144.2h0c0-.09.02-.19,0-.28-.01-.04-.01-.1-.07-.14-.06-.02-.11.02-.15.05-.14.13-.24.28-.35.43-.2.31-.38.63-.55.95-.64,1.28-1.1,2.65-1.45,4.03-.33,1.39-.53,2.82-.51,4.25,0,.36.03.72.05,1.07.02.36.09.71.14,1.06.04.36.16.7.24,1.05.08.35.21.68.32,1.02.45,1.36.83,2.73,1.1,4.14.56,2.8.56,5.7.09,8.51-.49,2.81-1.41,5.53-2.56,8.14l-.13.29.27-.18c.43-.29.79-.67,1.09-1.08.31-.41.56-.85.79-1.31.45-.91.78-1.87,1.06-2.85.55-1.95.9-3.95,1.18-5.94l.21-1.5c.04-.25.07-.49.13-.74.05-.25.11-.49.15-.74.19-.99.35-1.99.47-3,.12-1,.19-2.02.19-3.03,0-1.01-.06-2.03-.41-3.01-.21-.92-.39-1.85-.56-2.78-.16-.93-.31-1.87-.44-2.8-.13-.94-.24-1.88-.32-2.82-.04-.47-.08-.94-.09-1.42,0-.47-.03-.95.08-1.41h0Z"></path><path class="cls-1" d="M89.3,184.68c.14.11.27.21.4.33.12.12.25.24.31.37l.08.2.08-.19,1.1-2.54c.18-.42.36-.85.53-1.28.17-.43.34-.86.49-1.3h0s0,0,0,0c.02-.11.03-.21.01-.34,0-.01,0-.02-.01-.03.05-.07.09-.15.14-.22.07-.12.13-.25.19-.38.06-.13.13-.25.17-.38.03-.1.06-.2.08-.3.04.09.08.19.1.28.08.25.07.54.06.81-.04.55-.17,1.09-.32,1.62-.16.53-.35,1.05-.57,1.56-.12.25-.23.51-.38.74-.16.22-.34.43-.53.64l-.55.62c-.18.21-.38.4-.54.64h.01c.34-.43.75-.82,1.11-1.24.18-.21.37-.41.54-.64.16-.23.28-.49.4-.74.23-.51.43-1.03.6-1.56.16-.53.3-1.08.35-1.64.02-.28.03-.57-.05-.85-.03-.14-.09-.26-.14-.4l-.07-.2s-.02-.07-.06-.11c0-.01-.03-.02-.05-.03-.02,0-.03,0-.05,0-.03,0-.04.02-.06.03-.23.15-.5.21-.77.24-.27.03-.55.04-.83.05-.55.02-1.11,0-1.66-.05-.14-.02-.27-.03-.41-.06-.14-.03-.26-.06-.38-.14-.07-.04-.16-.02-.22.03-.06.04-.11.1-.14.16-.08.12-.13.25-.18.38h.01c.05-.12.11-.25.19-.36.07-.11.2-.22.31-.15.11.08.26.13.39.16.14.03.28.06.41.08.55.07,1.11.1,1.67.1.28,0,.56-.02.84-.05.28-.03.57-.1.81-.25.01,0,.02-.01.03-.02,0,.01.02.04.03.06l.07.19s.01.03.02.05c-.06.1-.12.21-.17.31-.06.13-.1.26-.15.39-.05.13-.1.26-.15.39-.03.07-.06.14-.09.21-.01-.04-.03-.08-.07-.11-.05-.06-.14-.09-.2-.09-.04,0-.07,0-.1,0h-.08s-.13.04-.13.04c-.09.01-.18,0-.27.01-.37-.01-.75-.08-1.12-.16-.74-.17-1.48-.41-2.19-.7-.07-.05-.14-.09-.23-.1-.05,0-.1.03-.1.08-.01.04,0,.09,0,.13.08.67.03,1.37-.14,2.02-.09.33-.21.64-.37.95-.15.3-.35.58-.55.85l-.03.03.03.03c.25.27.54.47.83.67.29.2.58.4.87.59.29.2.58.39.86.6Z"></path><polygon class="cls-1" points="79.41 174.78 79.41 174.78 79.41 174.78 79.41 174.78"></polygon><path class="cls-1" d="M87.12,178.45c.77-.36,1.49-.84,2.08-1.46.09-.09.16-.19.24-.28.34-.28.69-.54,1.06-.8.24-.23.38-.52.51-.81.13-.29.24-.59.35-.89.4-1.21.68-2.46.89-3.72.1-.63.19-1.27.19-1.91-.04-.64,0-1.27.08-1.9.08-.63.18-1.26.3-1.88.06-.31.12-.62.19-.93.03-.15.07-.31.11-.46l.06-.23s.02-.07.04-.11c0-.01.01-.04.02-.05,0,0,0-.01,0-.02l-.02-.17h-.02c.08-.15.14-.32.1-.49-.03-.2-.12-.4-.26-.55-.08-.07-.17-.14-.27-.17-.1-.04-.22-.04-.32-.02-.22.03-.39.18-.55.28-.32.21-.68.36-1.05.49-.73.27-1.49.46-2.25.64-.09.02-.19.04-.28.06-.05.01-.09.01-.13.02-.02,0-.01,0-.02,0-.03-.01-.06-.02-.08-.03-.11-.03-.22-.05-.34-.02-.06.01-.13.04-.18.11-.05.07-.05.15-.04.21.03.12.09.21.14.29l.16.25c.05.07.09.13.14.2-.06.04-.11.12-.11.19-.06.17-.03.35-.03.53l.02.53.05,1.06c.03.7.06,1.41.07,2.11,0,.7,0,1.41-.04,2.11-.02.35-.04.71-.08,1.05-.04.35-.15.69-.3,1-.04.08-.08.15-.12.22.01-.05.02-.11,0-.16,0-.03-.04-.06-.07-.07-.04,0-.07,0-.1,0h0s0,0,0,0c-.62.32-1.23.65-1.86.95-.63.3-1.26.58-1.91.8-.65.23-1.32.4-2,.46-.68.06-1.37-.02-2-.27h0s0,0,0,0c-.35-.1-.62-.41-.81-.75-.18-.34-.3-.72-.39-1.11-.17-.78-.24-1.58-.26-2.38-.03-.8,0-1.6.02-2.41,0-.1,0-.21-.09-.31-.04-.05-.12-.06-.17-.05-.06.01-.1.04-.15.06-.18.11-.32.26-.46.4-.11.11-.21.22-.31.33,0,0,0-.02-.01-.03-.08-.16-.17-.34-.37-.41-.01,0-.02,0-.04,0-.02,0-.04,0-.06.01-.03.02-.05.04-.06.06-.03.04-.05.08-.07.12-.04.08-.07.17-.1.25-.06.17-.11.34-.15.51-.09.34-.18.68-.27,1.02-.35,1.36-.69,2.73-1.21,4.04h0s0,0,0,0c-.23.71-.67,1.34-1.1,1.96-.43.62-.9,1.21-1.38,1.8-.96,1.17-1.97,2.3-3,3.41-.52.55-1.04,1.1-1.58,1.63-.54.53-1.08,1.05-1.67,1.53-1.17.96-2.34,1.93-3.47,2.94-1.13,1.01-2.24,2.04-3.3,3.13-1.05,1.1-2.07,2.23-2.89,3.52-.41.65-.71,1.35-1,2.05-.29.7-.54,1.42-.76,2.15-.22.73-.39,1.47-.51,2.23-.11.75-.19,1.5-.1,2.27-.05.28-.1.55-.11.84,0,.08,0,.14.03.25.01.02.03.07.09.09.03.01.06.01.08,0,.02,0,.04-.01.05-.02.05-.03.08-.06.1-.09.1-.12.16-.25.23-.37h0s0-.03,0-.03c.08-.65.17-1.3.31-1.94,0,.09-.01.18-.02.26h.02c.06-.72.27-1.43.62-2.06.34-.63.81-1.19,1.34-1.68,1.07-.97,2.35-1.67,3.67-2.27,1.32-.6,2.69-1.08,4.07-1.53,1.38-.46,2.77-.87,4.16-1.33h0s0,0,0,0c1.43-.65,2.77-1.53,3.87-2.65,1.11-1.11,1.97-2.47,2.54-3.93.29-.73.51-1.48.68-2.25.14-.77.19-1.55.25-2.33l.15-2.34c.03-.39.06-.78.1-1.17.02-.17.04-.34.07-.51.32.69.73,1.34,1.3,1.86.43.4.95.72,1.5.92.55.2,1.14.29,1.73.3,1.17.02,2.32-.27,3.41-.67,1.09-.4,2.13-.92,3.13-1.5h0ZM87.92,163.81l-.14-.26c-.05-.09-.09-.17-.1-.25,0-.08.01-.08.09-.1.07-.01.16,0,.24.03.02,0,.04.02.05.02.04.01.09.02.12.02.05,0,.11,0,.16-.01.1-.01.2-.03.3-.04.78-.15,1.54-.4,2.27-.7.37-.15.73-.31,1.07-.55.09-.06.15-.12.24-.17.08-.05.16-.08.25-.1.17-.04.35.02.49.14.13.13.22.3.25.49.05.16,0,.33-.09.48l-.34.02h-.03s-.02.02-.02.02l-.75.5c-.66.3-1.34.57-2.04.76-.36.09-.74.17-1.1.12-.18-.04-.34-.15-.52-.2-.09-.02-.19-.03-.28,0-.04-.07-.08-.15-.11-.23ZM75.96,178.03c-.05.39-.08.78-.11,1.17l-.16,2.34c-.06.78-.12,1.56-.26,2.32-.18.76-.41,1.5-.7,2.22-.58,1.44-1.44,2.77-2.55,3.86-1.1,1.1-2.43,1.94-3.84,2.58-1.38.44-2.78.84-4.17,1.28-1.39.45-2.76.94-4.1,1.54-1.32.62-2.62,1.35-3.69,2.36-.5.48-.93,1.02-1.26,1.63.22-.5.49-.97.83-1.39.58-.74,1.32-1.33,2.11-1.84.8-.5,1.64-.92,2.5-1.32,2.14-.69,4.23-1.56,6.16-2.74,1.92-1.18,3.68-2.66,5.07-4.44.7-.89,1.34-1.83,1.83-2.85.5-1.02.86-2.1,1.14-3.19.28-1.1.47-2.21.6-3.33.06-.56.11-1.12.15-1.68.03-.37.04-.75.07-1.11l.03.93v.02s0,.01,0,.01c.12.37.26.74.42,1.09-.03.18-.06.37-.08.55ZM86.25,174.29c-.53.46-1.14.83-1.77,1.14-.63.3-1.3.54-1.99.69-.68.15-1.39.23-2.09.18-.35-.03-.7-.09-1.03-.19l-.24-.09c-.08-.03-.16-.07-.24-.11-.15-.08-.3-.18-.45-.27-.59-.38-1.07-.92-1.36-1.55-.3-.63-.37-1.35-.35-2.05.01-.35.06-.7.11-1.05.05-.35.14-.69.18-1.05.04-.35.04-.71-.02-1.07-.03-.15-.07-.3-.13-.45.11-.12.22-.23.33-.34.14-.14.29-.28.46-.38.08-.05.19-.08.23-.02.05.06.06.17.06.26-.03.8-.08,1.6-.07,2.41.01.8.06,1.61.23,2.41.08.4.2.79.39,1.16.19.36.48.72.91.86.66.27,1.38.38,2.09.32.71-.05,1.4-.24,2.06-.48,1.32-.5,2.54-1.18,3.71-1.93.05-.02.1-.02.12.03.02.05.02.1,0,.16h.02c-.3.54-.7,1.01-1.17,1.41Z"></path><path class="cls-1" d="M66.02,147.83c.23-1.74.54-3.47.95-5.17l.14-.58-.34.48c-.96,1.36-1.81,2.79-2.58,4.25-.77,1.47-1.44,2.99-2,4.55-.27.78-.52,1.57-.73,2.38-.2.8-.37,1.62-.48,2.44-.11.82-.17,1.65-.17,2.48.01.83.08,1.66.23,2.47.33,1.85.53,3.73.64,5.61.11,1.88.13,3.76.08,5.65-.06,1.88-.19,3.76-.43,5.63-.12.93-.28,1.86-.49,2.78-.11.46-.23.91-.39,1.35-.03.07-.06.15-.09.22-.2.33-.4.65-.6.98l-.25.4.34-.32c.29-.27.46-.61.6-.96.73-1.18,1.45-2.37,2.12-3.58.85-1.54,1.65-3.12,2.24-4.79.58-1.67.93-3.43.97-5.19.04-.88.01-1.76-.01-2.65l-.06-1.32-.1-1.32c-.26-3.51-.3-7.03-.08-10.53.1-1.75.27-3.5.5-5.24Z"></path><path class="cls-1" d="M86.86,157.21c.74.44,1.74.3,1.99-.62.24-.88.27-1.88,0-2.75-.23-.77-.69-1.72-1.38-2.19v1.37c-.61,0-1.23-.02-1.84,0-.7.02-.78.81-.88,1.36-.03.2-.14.48-.1.69.06.39.54.8.81,1.05.42.39.9.82,1.39,1.11Z"></path><path class="cls-1" d="M69.52,164.3c.13.02.22-.04.32-.08,2.19-.91,4.38-1.82,6.58-2.71.39-.16.51-.4.48-.82-.09.03-.15.04-.2.07-2.24.92-4.48,1.85-6.72,2.75-.4.16-.47.43-.46.8Z"></path><path class="cls-1" d="M48.52,179.15c-.16-.17-.27-.06-.38.06-.48.52-1.36.97-1.35,1.55,0,.59.9,1.02,1.39,1.52.15.15.26.2.44.02.41-.44.84-.86,1.26-1.29.07-.07.13-.17.19-.25-.06-.09-.09-.15-.13-.2-.47-.47-.95-.94-1.42-1.42Z"></path><path class="cls-1" d="M119.99,173.87c.39-.42.79-.82,1.19-1.23.07-.07.12-.16.17-.24-.05-.08-.08-.14-.12-.19-.44-.45-.89-.9-1.33-1.35-.15-.16-.25-.06-.36.05-.45.5-1.28.92-1.27,1.48,0,.56.85.97,1.31,1.45.14.14.25.19.41.02Z"></path><path class="cls-1" d="M54.22,174.39c-.06-.09-.09-.15-.13-.2-.47-.47-.95-.94-1.42-1.42-.16-.17-.27-.06-.38.06-.48.52-1.36.97-1.35,1.55,0,.59.9,1.02,1.39,1.52.15.15.26.2.44.02.41-.44.84-.86,1.26-1.29.07-.07.13-.17.19-.25Z"></path><path class="cls-1" d="M120.32,178.78c-.24-.25-.4-.1-.57.09-.71.79-2.04,1.46-2.02,2.35.01.9,1.35,1.54,2.09,2.31.22.23.4.3.65.02.62-.66,1.26-1.3,1.89-1.95.11-.11.19-.25.28-.38-.09-.13-.13-.23-.19-.3-.7-.72-1.42-1.43-2.12-2.15Z"></path></g></g></g></svg> 